<mxfile host="app.diagrams.net" modified="2023-12-04T20:10:19.297Z" agent="Mozilla/5.0 (Windows NT 10.0; Win64; x64) AppleWebKit/537.36 (KHTML, like Gecko) Chrome/119.0.0.0 Safari/537.36" etag="OAWvquBMnFgvnptRi5l3" version="22.1.5" type="device">
  <diagram name="Page-1" id="7e0a89b8-554c-2b80-1dc8-d5c74ca68de4">
    <mxGraphModel dx="1687" dy="882" grid="1" gridSize="10" guides="1" tooltips="1" connect="1" arrows="1" fold="1" page="1" pageScale="1" pageWidth="1100" pageHeight="850" background="none" math="1" shadow="0">
      <root>
        <mxCell id="0" />
        <mxCell id="1" parent="0" />
        <mxCell id="XIqC5FC4mVJbqVSxe_GK-67" style="edgeStyle=orthogonalEdgeStyle;rounded=0;orthogonalLoop=1;jettySize=auto;html=1;endArrow=none;endFill=0;strokeWidth=3;" parent="1" edge="1">
          <mxGeometry relative="1" as="geometry">
            <mxPoint x="393" y="717.37" as="targetPoint" />
            <mxPoint x="393" y="497.37" as="sourcePoint" />
          </mxGeometry>
        </mxCell>
        <mxCell id="XIqC5FC4mVJbqVSxe_GK-117" value="" style="edgeStyle=orthogonalEdgeStyle;rounded=0;orthogonalLoop=1;jettySize=auto;html=1;exitX=0;exitY=0.5;exitDx=0;exitDy=0;exitPerimeter=0;endArrow=none;endFill=0;strokeWidth=3;" parent="1" source="XIqC5FC4mVJbqVSxe_GK-147" target="XIqC5FC4mVJbqVSxe_GK-79" edge="1">
          <mxGeometry relative="1" as="geometry">
            <mxPoint x="488" y="167.37" as="targetPoint" />
            <mxPoint x="393" y="417.37" as="sourcePoint" />
            <Array as="points" />
          </mxGeometry>
        </mxCell>
        <mxCell id="XIqC5FC4mVJbqVSxe_GK-79" value="" style="verticalLabelPosition=bottom;shadow=0;dashed=0;align=center;html=1;verticalAlign=top;strokeWidth=3;shape=ellipse;fillColor=#0;" parent="1" vertex="1">
          <mxGeometry x="390.5" y="164.87" width="5" height="5" as="geometry" />
        </mxCell>
        <mxCell id="XIqC5FC4mVJbqVSxe_GK-140" style="edgeStyle=orthogonalEdgeStyle;rounded=0;orthogonalLoop=1;jettySize=auto;html=1;exitX=0.5;exitY=1;exitDx=0;exitDy=0;exitPerimeter=0;endArrow=none;endFill=0;strokeWidth=3;" parent="1" edge="1">
          <mxGeometry relative="1" as="geometry">
            <mxPoint x="292.5" y="717.37" as="targetPoint" />
            <mxPoint x="292.5" y="477.37" as="sourcePoint" />
          </mxGeometry>
        </mxCell>
        <mxCell id="XIqC5FC4mVJbqVSxe_GK-142" value="&lt;p style=&quot;line-height: 0%;&quot;&gt;&lt;br&gt;&lt;/p&gt;" style="pointerEvents=1;verticalLabelPosition=bottom;shadow=0;dashed=0;align=right;html=1;verticalAlign=top;shape=mxgraph.electrical.signal_sources.source;aspect=fixed;points=[[0.5,0,0],[1,0.5,0],[0.5,1,0],[0,0.5,0]];elSignalType=ac;strokeWidth=3;" parent="1" vertex="1">
          <mxGeometry x="262.5" y="417.37" width="60" height="60" as="geometry" />
        </mxCell>
        <mxCell id="XIqC5FC4mVJbqVSxe_GK-143" value="&lt;font style=&quot;font-size: 24px;&quot;&gt;$$v_{in}$$&lt;/font&gt;" style="text;html=1;strokeColor=none;fillColor=none;align=center;verticalAlign=middle;whiteSpace=wrap;rounded=0;strokeWidth=3;" parent="1" vertex="1">
          <mxGeometry x="220" y="457.37" width="60" height="30" as="geometry" />
        </mxCell>
        <mxCell id="XIqC5FC4mVJbqVSxe_GK-144" value="" style="edgeStyle=orthogonalEdgeStyle;rounded=0;orthogonalLoop=1;jettySize=auto;html=1;exitX=0.5;exitY=0;exitDx=0;exitDy=0;exitPerimeter=0;endArrow=none;endFill=0;strokeWidth=3;" parent="1" target="XIqC5FC4mVJbqVSxe_GK-145" edge="1">
          <mxGeometry relative="1" as="geometry">
            <mxPoint x="387.5" y="167.37" as="targetPoint" />
            <mxPoint x="292.5" y="417.37" as="sourcePoint" />
            <Array as="points" />
          </mxGeometry>
        </mxCell>
        <mxCell id="XIqC5FC4mVJbqVSxe_GK-146" style="edgeStyle=orthogonalEdgeStyle;rounded=0;orthogonalLoop=1;jettySize=auto;html=1;exitX=1;exitY=0.5;exitDx=0;exitDy=0;entryX=0;entryY=0.5;entryDx=0;entryDy=0;endArrow=none;endFill=0;strokeWidth=3;" parent="1" source="XIqC5FC4mVJbqVSxe_GK-145" target="XIqC5FC4mVJbqVSxe_GK-79" edge="1">
          <mxGeometry relative="1" as="geometry" />
        </mxCell>
        <mxCell id="XIqC5FC4mVJbqVSxe_GK-145" value="" style="verticalLabelPosition=bottom;shadow=0;dashed=0;align=center;html=1;verticalAlign=top;strokeWidth=3;shape=ellipse;fillColor=#0;" parent="1" vertex="1">
          <mxGeometry x="290" y="164.87" width="5" height="5" as="geometry" />
        </mxCell>
        <mxCell id="XIqC5FC4mVJbqVSxe_GK-147" value="" style="pointerEvents=1;verticalLabelPosition=bottom;shadow=0;dashed=0;align=center;html=1;verticalAlign=top;shape=mxgraph.electrical.resistors.resistor_2;direction=south;strokeWidth=3;" parent="1" vertex="1">
          <mxGeometry x="383" y="397.37" width="20" height="100" as="geometry" />
        </mxCell>
        <mxCell id="XIqC5FC4mVJbqVSxe_GK-148" value="&lt;font style=&quot;font-size: 20px;&quot;&gt;$$R_{in}$$&lt;/font&gt;" style="text;html=1;strokeColor=none;fillColor=none;align=center;verticalAlign=middle;whiteSpace=wrap;rounded=0;strokeWidth=3;" parent="1" vertex="1">
          <mxGeometry x="335.5" y="387.37" width="60" height="30" as="geometry" />
        </mxCell>
        <mxCell id="9qdY8vDxd1mxcDxVxTKz-141" style="edgeStyle=orthogonalEdgeStyle;rounded=0;orthogonalLoop=1;jettySize=auto;html=1;exitX=0;exitY=0.25;exitDx=0;exitDy=0;exitPerimeter=0;entryX=1;entryY=0.5;entryDx=0;entryDy=0;entryPerimeter=0;endArrow=none;endFill=0;strokeWidth=3;" parent="1" source="9qdY8vDxd1mxcDxVxTKz-181" edge="1">
          <mxGeometry relative="1" as="geometry">
            <mxPoint x="753" y="317.5" as="targetPoint" />
            <Array as="points">
              <mxPoint x="493" y="317.5" />
            </Array>
          </mxGeometry>
        </mxCell>
        <mxCell id="9qdY8vDxd1mxcDxVxTKz-142" value="&lt;p style=&quot;line-height: 120%;&quot;&gt;&lt;br&gt;&lt;/p&gt;" style="pointerEvents=1;verticalLabelPosition=bottom;shadow=0;dashed=0;align=left;html=1;verticalAlign=top;shape=mxgraph.electrical.resistors.potentiometer_2;direction=north;strokeWidth=3;" parent="1" vertex="1">
          <mxGeometry x="483" y="167.5" width="40" height="100" as="geometry" />
        </mxCell>
        <mxCell id="9qdY8vDxd1mxcDxVxTKz-143" value="" style="pointerEvents=1;verticalLabelPosition=bottom;shadow=0;dashed=0;align=center;html=1;verticalAlign=top;shape=mxgraph.electrical.capacitors.capacitor_1;strokeWidth=3;" parent="1" vertex="1">
          <mxGeometry x="513" y="202.5" width="60" height="30" as="geometry" />
        </mxCell>
        <mxCell id="9qdY8vDxd1mxcDxVxTKz-144" value="" style="pointerEvents=1;verticalLabelPosition=bottom;shadow=0;dashed=0;align=center;html=1;verticalAlign=top;shape=mxgraph.electrical.inductors.inductor_3;strokeWidth=3;" parent="1" vertex="1">
          <mxGeometry x="562" y="209.5" width="100" height="8" as="geometry" />
        </mxCell>
        <mxCell id="9qdY8vDxd1mxcDxVxTKz-145" style="edgeStyle=orthogonalEdgeStyle;rounded=0;orthogonalLoop=1;jettySize=auto;html=1;exitX=1;exitY=0.5;exitDx=0;exitDy=0;exitPerimeter=0;entryX=1.051;entryY=0.5;entryDx=0;entryDy=0;entryPerimeter=0;endArrow=none;endFill=0;strokeWidth=3;" parent="1" source="9qdY8vDxd1mxcDxVxTKz-143" target="9qdY8vDxd1mxcDxVxTKz-143" edge="1">
          <mxGeometry relative="1" as="geometry" />
        </mxCell>
        <mxCell id="9qdY8vDxd1mxcDxVxTKz-146" style="edgeStyle=orthogonalEdgeStyle;rounded=0;orthogonalLoop=1;jettySize=auto;html=1;exitX=1;exitY=1;exitDx=0;exitDy=0;exitPerimeter=0;entryX=1.024;entryY=0.995;entryDx=0;entryDy=0;entryPerimeter=0;endArrow=none;endFill=0;strokeWidth=3;" parent="1" source="9qdY8vDxd1mxcDxVxTKz-144" target="9qdY8vDxd1mxcDxVxTKz-144" edge="1">
          <mxGeometry relative="1" as="geometry" />
        </mxCell>
        <mxCell id="9qdY8vDxd1mxcDxVxTKz-147" style="edgeStyle=orthogonalEdgeStyle;rounded=0;orthogonalLoop=1;jettySize=auto;html=1;exitX=1;exitY=1;exitDx=0;exitDy=0;exitPerimeter=0;entryX=1.015;entryY=1;entryDx=0;entryDy=0;entryPerimeter=0;endArrow=none;endFill=0;strokeWidth=3;" parent="1" source="9qdY8vDxd1mxcDxVxTKz-144" target="9qdY8vDxd1mxcDxVxTKz-144" edge="1">
          <mxGeometry relative="1" as="geometry" />
        </mxCell>
        <mxCell id="9qdY8vDxd1mxcDxVxTKz-148" style="edgeStyle=orthogonalEdgeStyle;rounded=0;orthogonalLoop=1;jettySize=auto;html=1;exitX=0;exitY=0.5;exitDx=0;exitDy=0;exitPerimeter=0;endArrow=none;endFill=0;strokeWidth=3;" parent="1" source="9qdY8vDxd1mxcDxVxTKz-150" edge="1">
          <mxGeometry relative="1" as="geometry">
            <mxPoint x="752.9444444444445" y="317.5" as="targetPoint" />
          </mxGeometry>
        </mxCell>
        <mxCell id="9qdY8vDxd1mxcDxVxTKz-149" style="edgeStyle=orthogonalEdgeStyle;rounded=0;orthogonalLoop=1;jettySize=auto;html=1;exitX=1;exitY=0.5;exitDx=0;exitDy=0;exitPerimeter=0;endArrow=none;endFill=0;strokeWidth=3;" parent="1" source="9qdY8vDxd1mxcDxVxTKz-185" edge="1">
          <mxGeometry relative="1" as="geometry">
            <Array as="points">
              <mxPoint x="673" y="417.5" />
              <mxPoint x="673" y="417.5" />
            </Array>
            <mxPoint x="673" y="417.5" as="targetPoint" />
          </mxGeometry>
        </mxCell>
        <mxCell id="9qdY8vDxd1mxcDxVxTKz-150" value="" style="pointerEvents=1;verticalLabelPosition=bottom;shadow=0;dashed=0;align=center;html=1;verticalAlign=top;shape=mxgraph.electrical.capacitors.capacitor_1;direction=south;strokeWidth=3;" parent="1" vertex="1">
          <mxGeometry x="738" y="337.5" width="30" height="60" as="geometry" />
        </mxCell>
        <mxCell id="9qdY8vDxd1mxcDxVxTKz-151" style="edgeStyle=orthogonalEdgeStyle;rounded=0;orthogonalLoop=1;jettySize=auto;html=1;exitX=1;exitY=0.25;exitDx=0;exitDy=0;exitPerimeter=0;endArrow=none;endFill=0;strokeWidth=3;" parent="1" source="9qdY8vDxd1mxcDxVxTKz-153" edge="1">
          <mxGeometry relative="1" as="geometry">
            <mxPoint x="493.0232558139535" y="402.5" as="targetPoint" />
          </mxGeometry>
        </mxCell>
        <mxCell id="9qdY8vDxd1mxcDxVxTKz-152" style="edgeStyle=orthogonalEdgeStyle;rounded=0;orthogonalLoop=1;jettySize=auto;html=1;exitX=1;exitY=0.25;exitDx=0;exitDy=0;exitPerimeter=0;endArrow=none;endFill=0;strokeWidth=3;" parent="1" source="9qdY8vDxd1mxcDxVxTKz-153" edge="1">
          <mxGeometry relative="1" as="geometry">
            <mxPoint x="493" y="317.5" as="targetPoint" />
          </mxGeometry>
        </mxCell>
        <mxCell id="9qdY8vDxd1mxcDxVxTKz-153" value="" style="pointerEvents=1;verticalLabelPosition=bottom;shadow=0;dashed=0;align=center;html=1;verticalAlign=top;shape=mxgraph.electrical.resistors.potentiometer_2;direction=north;strokeWidth=3;" parent="1" vertex="1">
          <mxGeometry x="483" y="402.5" width="40" height="100" as="geometry" />
        </mxCell>
        <mxCell id="9qdY8vDxd1mxcDxVxTKz-154" value="" style="pointerEvents=1;verticalLabelPosition=bottom;shadow=0;dashed=0;align=center;html=1;verticalAlign=top;shape=mxgraph.electrical.resistors.resistor_2;direction=south;strokeWidth=3;" parent="1" vertex="1">
          <mxGeometry x="583" y="452.5" width="20" height="100" as="geometry" />
        </mxCell>
        <mxCell id="9qdY8vDxd1mxcDxVxTKz-155" value="" style="pointerEvents=1;verticalLabelPosition=bottom;shadow=0;dashed=0;align=center;html=1;verticalAlign=top;shape=mxgraph.electrical.resistors.resistor_2;direction=south;strokeWidth=3;" parent="1" vertex="1">
          <mxGeometry x="703" y="417.5" width="20" height="100" as="geometry" />
        </mxCell>
        <mxCell id="9qdY8vDxd1mxcDxVxTKz-156" style="edgeStyle=orthogonalEdgeStyle;rounded=0;orthogonalLoop=1;jettySize=auto;html=1;exitX=1;exitY=0.5;exitDx=0;exitDy=0;exitPerimeter=0;endArrow=none;endFill=0;strokeWidth=3;entryX=1.187;entryY=0.526;entryDx=0;entryDy=0;entryPerimeter=0;" parent="1" source="9qdY8vDxd1mxcDxVxTKz-158" target="9qdY8vDxd1mxcDxVxTKz-186" edge="1">
          <mxGeometry relative="1" as="geometry">
            <mxPoint x="553" y="567.5" as="targetPoint" />
            <Array as="points">
              <mxPoint x="543" y="617.5" />
              <mxPoint x="543" y="552.5" />
            </Array>
          </mxGeometry>
        </mxCell>
        <mxCell id="9qdY8vDxd1mxcDxVxTKz-157" style="edgeStyle=orthogonalEdgeStyle;rounded=0;orthogonalLoop=1;jettySize=auto;html=1;exitX=0;exitY=0.5;exitDx=0;exitDy=0;exitPerimeter=0;entryX=0.1;entryY=0.5;entryDx=0;entryDy=0;entryPerimeter=0;endArrow=none;endFill=0;strokeWidth=3;" parent="1" source="9qdY8vDxd1mxcDxVxTKz-158" target="9qdY8vDxd1mxcDxVxTKz-162" edge="1">
          <mxGeometry relative="1" as="geometry" />
        </mxCell>
        <mxCell id="9qdY8vDxd1mxcDxVxTKz-158" value="" style="pointerEvents=1;verticalLabelPosition=bottom;shadow=0;dashed=0;align=center;html=1;verticalAlign=top;shape=mxgraph.electrical.resistors.resistor_2;direction=south;strokeWidth=3;" parent="1" vertex="1">
          <mxGeometry x="703" y="517.5" width="20" height="100" as="geometry" />
        </mxCell>
        <mxCell id="9qdY8vDxd1mxcDxVxTKz-159" style="edgeStyle=orthogonalEdgeStyle;rounded=0;orthogonalLoop=1;jettySize=auto;html=1;exitX=0;exitY=0.5;exitDx=0;exitDy=0;exitPerimeter=0;entryX=0.5;entryY=1;entryDx=0;entryDy=0;endArrow=none;endFill=0;strokeWidth=3;" parent="1" source="9qdY8vDxd1mxcDxVxTKz-160" target="9qdY8vDxd1mxcDxVxTKz-189" edge="1">
          <mxGeometry relative="1" as="geometry" />
        </mxCell>
        <mxCell id="9qdY8vDxd1mxcDxVxTKz-160" value="" style="pointerEvents=1;verticalLabelPosition=bottom;shadow=0;dashed=0;align=center;html=1;verticalAlign=top;shape=mxgraph.electrical.capacitors.capacitor_1;direction=south;strokeWidth=3;" parent="1" vertex="1">
          <mxGeometry x="698" y="637.5" width="30" height="60" as="geometry" />
        </mxCell>
        <mxCell id="9qdY8vDxd1mxcDxVxTKz-161" style="edgeStyle=orthogonalEdgeStyle;rounded=0;orthogonalLoop=1;jettySize=auto;html=1;exitX=0.5;exitY=0;exitDx=0;exitDy=0;exitPerimeter=0;entryX=1;entryY=0.5;entryDx=0;entryDy=0;entryPerimeter=0;endArrow=none;endFill=0;strokeWidth=3;" parent="1" target="9qdY8vDxd1mxcDxVxTKz-160" edge="1">
          <mxGeometry relative="1" as="geometry">
            <mxPoint x="713" y="717.5" as="sourcePoint" />
          </mxGeometry>
        </mxCell>
        <mxCell id="9qdY8vDxd1mxcDxVxTKz-162" value="" style="verticalLabelPosition=bottom;shadow=0;dashed=0;align=center;html=1;verticalAlign=top;shape=mxgraph.electrical.logic_gates.inverting_contact;strokeWidth=3;" parent="1" vertex="1">
          <mxGeometry x="743" y="512.5" width="10" height="10" as="geometry" />
        </mxCell>
        <mxCell id="9qdY8vDxd1mxcDxVxTKz-163" value="" style="edgeStyle=orthogonalEdgeStyle;rounded=0;orthogonalLoop=1;jettySize=auto;html=1;exitX=0;exitY=0.25;exitDx=0;exitDy=0;exitPerimeter=0;entryX=1;entryY=0.5;entryDx=0;entryDy=0;entryPerimeter=0;endArrow=none;endFill=0;strokeWidth=3;" parent="1" source="9qdY8vDxd1mxcDxVxTKz-153" edge="1">
          <mxGeometry relative="1" as="geometry">
            <mxPoint x="493" y="502.5" as="sourcePoint" />
            <mxPoint x="548" y="552.5" as="targetPoint" />
            <Array as="points">
              <mxPoint x="493" y="552.5" />
            </Array>
          </mxGeometry>
        </mxCell>
        <mxCell id="9qdY8vDxd1mxcDxVxTKz-164" value="" style="edgeStyle=orthogonalEdgeStyle;rounded=0;orthogonalLoop=1;jettySize=auto;html=1;exitX=1;exitY=0.5;exitDx=0;exitDy=0;exitPerimeter=0;entryX=0;entryY=0.5;entryDx=0;entryDy=0;entryPerimeter=0;endArrow=none;endFill=0;strokeWidth=3;" parent="1" source="9qdY8vDxd1mxcDxVxTKz-189" edge="1">
          <mxGeometry relative="1" as="geometry">
            <mxPoint x="713" y="617.5" as="sourcePoint" />
            <mxPoint x="708" y="617.5" as="targetPoint" />
          </mxGeometry>
        </mxCell>
        <mxCell id="9qdY8vDxd1mxcDxVxTKz-165" value="&lt;font style=&quot;font-size: 20px;&quot;&gt;$$R_{bHi}$$&lt;/font&gt;" style="text;html=1;strokeColor=none;fillColor=none;align=center;verticalAlign=middle;whiteSpace=wrap;rounded=0;strokeWidth=3;" parent="1" vertex="1">
          <mxGeometry x="432" y="247.5" width="60" height="30" as="geometry" />
        </mxCell>
        <mxCell id="9qdY8vDxd1mxcDxVxTKz-166" value="&lt;font style=&quot;font-size: 20px;&quot;&gt;$$C_{1}$$&lt;/font&gt;" style="text;html=1;strokeColor=none;fillColor=none;align=center;verticalAlign=middle;whiteSpace=wrap;rounded=0;strokeWidth=3;" parent="1" vertex="1">
          <mxGeometry x="513" y="157.5" width="60" height="30" as="geometry" />
        </mxCell>
        <mxCell id="9qdY8vDxd1mxcDxVxTKz-167" value="&lt;font style=&quot;font-size: 20px;&quot;&gt;$$L_{1}$$&lt;/font&gt;" style="text;html=1;strokeColor=none;fillColor=none;align=center;verticalAlign=middle;whiteSpace=wrap;rounded=0;strokeWidth=3;" parent="1" vertex="1">
          <mxGeometry x="582" y="157.5" width="60" height="30" as="geometry" />
        </mxCell>
        <mxCell id="9qdY8vDxd1mxcDxVxTKz-168" value="&lt;font style=&quot;font-size: 20px;&quot;&gt;$$R_{bHiQ}$$&lt;/font&gt;" style="text;html=1;strokeColor=none;fillColor=none;align=center;verticalAlign=middle;whiteSpace=wrap;rounded=0;strokeWidth=3;" parent="1" vertex="1">
          <mxGeometry x="673" y="157.5" width="60" height="30" as="geometry" />
        </mxCell>
        <mxCell id="9qdY8vDxd1mxcDxVxTKz-169" value="&lt;font style=&quot;font-size: 20px;&quot;&gt;$$C_{cLo}$$&lt;/font&gt;" style="text;html=1;strokeColor=none;fillColor=none;align=center;verticalAlign=middle;whiteSpace=wrap;rounded=0;strokeWidth=3;" parent="1" vertex="1">
          <mxGeometry x="758" y="327.5" width="60" height="30" as="geometry" />
        </mxCell>
        <mxCell id="9qdY8vDxd1mxcDxVxTKz-170" value="&lt;font style=&quot;font-size: 20px;&quot;&gt;$$R_{cLo}$$&lt;/font&gt;" style="text;html=1;strokeColor=none;fillColor=none;align=center;verticalAlign=middle;whiteSpace=wrap;rounded=0;strokeWidth=3;" parent="1" vertex="1">
          <mxGeometry x="602" y="357.5" width="60" height="30" as="geometry" />
        </mxCell>
        <mxCell id="9qdY8vDxd1mxcDxVxTKz-171" value="&lt;font style=&quot;font-size: 20px;&quot;&gt;$$R_{1}$$&lt;/font&gt;" style="text;html=1;strokeColor=none;fillColor=none;align=center;verticalAlign=middle;whiteSpace=wrap;rounded=0;strokeWidth=3;" parent="1" vertex="1">
          <mxGeometry x="593" y="487.5" width="60" height="30" as="geometry" />
        </mxCell>
        <mxCell id="9qdY8vDxd1mxcDxVxTKz-172" value="&lt;font style=&quot;font-size: 20px;&quot;&gt;$$R_{cHi}$$&lt;/font&gt;" style="text;html=1;strokeColor=none;fillColor=none;align=center;verticalAlign=middle;whiteSpace=wrap;rounded=0;strokeWidth=3;" parent="1" vertex="1">
          <mxGeometry x="432" y="392.5" width="60" height="30" as="geometry" />
        </mxCell>
        <mxCell id="9qdY8vDxd1mxcDxVxTKz-173" value="&lt;font style=&quot;font-size: 20px;&quot;&gt;$$C_{cHi}$$&lt;/font&gt;" style="text;html=1;strokeColor=none;fillColor=none;align=center;verticalAlign=middle;whiteSpace=wrap;rounded=0;strokeWidth=3;" parent="1" vertex="1">
          <mxGeometry x="513" y="402.5" width="60" height="30" as="geometry" />
        </mxCell>
        <mxCell id="9qdY8vDxd1mxcDxVxTKz-174" value="&lt;font style=&quot;font-size: 20px;&quot;&gt;$$R_{2}$$&lt;/font&gt;" style="text;html=1;strokeColor=none;fillColor=none;align=center;verticalAlign=middle;whiteSpace=wrap;rounded=0;strokeWidth=3;" parent="1" vertex="1">
          <mxGeometry x="718" y="452.5" width="60" height="30" as="geometry" />
        </mxCell>
        <mxCell id="9qdY8vDxd1mxcDxVxTKz-175" value="&lt;font style=&quot;font-size: 20px;&quot;&gt;$$R_{3}$$&lt;/font&gt;" style="text;html=1;strokeColor=none;fillColor=none;align=center;verticalAlign=middle;whiteSpace=wrap;rounded=0;strokeWidth=3;" parent="1" vertex="1">
          <mxGeometry x="718" y="552.5" width="60" height="30" as="geometry" />
        </mxCell>
        <mxCell id="9qdY8vDxd1mxcDxVxTKz-176" value="&lt;font style=&quot;font-size: 20px;&quot;&gt;$$C_{bLo}$$&lt;/font&gt;" style="text;html=1;strokeColor=none;fillColor=none;align=center;verticalAlign=middle;whiteSpace=wrap;rounded=0;strokeWidth=3;" parent="1" vertex="1">
          <mxGeometry x="639" y="647.5" width="60" height="30" as="geometry" />
        </mxCell>
        <mxCell id="9qdY8vDxd1mxcDxVxTKz-177" value="&lt;font style=&quot;font-size: 20px;&quot;&gt;$$R_{bLo}$$&lt;/font&gt;" style="text;html=1;strokeColor=none;fillColor=none;align=center;verticalAlign=middle;whiteSpace=wrap;rounded=0;strokeWidth=3;" parent="1" vertex="1">
          <mxGeometry x="473" y="647.5" width="60" height="30" as="geometry" />
        </mxCell>
        <mxCell id="9qdY8vDxd1mxcDxVxTKz-178" value="&lt;font style=&quot;font-size: 24px;&quot;&gt;$$v_{out}$$&lt;/font&gt;" style="text;html=1;strokeColor=none;fillColor=none;align=center;verticalAlign=middle;whiteSpace=wrap;rounded=0;strokeWidth=3;" parent="1" vertex="1">
          <mxGeometry x="750" y="502.5" width="60" height="30" as="geometry" />
        </mxCell>
        <mxCell id="9qdY8vDxd1mxcDxVxTKz-179" style="edgeStyle=orthogonalEdgeStyle;rounded=0;orthogonalLoop=1;jettySize=auto;html=1;endArrow=none;endFill=0;strokeWidth=3;exitX=0.974;exitY=0.25;exitDx=0;exitDy=0;exitPerimeter=0;" parent="1" source="9qdY8vDxd1mxcDxVxTKz-142" edge="1">
          <mxGeometry relative="1" as="geometry">
            <mxPoint x="393" y="177.5" as="targetPoint" />
            <mxPoint x="493" y="167.5" as="sourcePoint" />
            <Array as="points">
              <mxPoint x="493" y="167.5" />
            </Array>
          </mxGeometry>
        </mxCell>
        <mxCell id="9qdY8vDxd1mxcDxVxTKz-180" value="" style="edgeStyle=orthogonalEdgeStyle;rounded=0;orthogonalLoop=1;jettySize=auto;html=1;exitX=0;exitY=0.25;exitDx=0;exitDy=0;exitPerimeter=0;entryX=1;entryY=0.5;entryDx=0;entryDy=0;entryPerimeter=0;endArrow=none;endFill=0;strokeWidth=3;" parent="1" source="9qdY8vDxd1mxcDxVxTKz-142" target="9qdY8vDxd1mxcDxVxTKz-181" edge="1">
          <mxGeometry relative="1" as="geometry">
            <mxPoint x="493" y="267.5" as="sourcePoint" />
            <mxPoint x="753" y="317.5" as="targetPoint" />
            <Array as="points">
              <mxPoint x="493" y="317.5" />
            </Array>
          </mxGeometry>
        </mxCell>
        <mxCell id="9qdY8vDxd1mxcDxVxTKz-181" value="" style="verticalLabelPosition=bottom;shadow=0;dashed=0;align=center;html=1;verticalAlign=top;strokeWidth=3;shape=ellipse;fillColor=#0;" parent="1" vertex="1">
          <mxGeometry x="490.5" y="315" width="5" height="5" as="geometry" />
        </mxCell>
        <mxCell id="9qdY8vDxd1mxcDxVxTKz-182" value="" style="verticalLabelPosition=bottom;shadow=0;dashed=0;align=center;html=1;verticalAlign=top;strokeWidth=3;shape=ellipse;fillColor=#0;" parent="1" vertex="1">
          <mxGeometry x="671.5" y="315" width="5" height="5" as="geometry" />
        </mxCell>
        <mxCell id="9qdY8vDxd1mxcDxVxTKz-183" value="" style="verticalLabelPosition=bottom;shadow=0;dashed=0;align=center;html=1;verticalAlign=top;strokeWidth=3;shape=ellipse;fillColor=#0;" parent="1" vertex="1">
          <mxGeometry x="750.5" y="315" width="5" height="5" as="geometry" />
        </mxCell>
        <mxCell id="9qdY8vDxd1mxcDxVxTKz-184" value="" style="edgeStyle=orthogonalEdgeStyle;rounded=0;orthogonalLoop=1;jettySize=auto;html=1;exitX=1;exitY=0.5;exitDx=0;exitDy=0;exitPerimeter=0;entryX=0;entryY=0.5;entryDx=0;entryDy=0;entryPerimeter=0;endArrow=none;endFill=0;strokeWidth=3;" parent="1" source="9qdY8vDxd1mxcDxVxTKz-150" target="9qdY8vDxd1mxcDxVxTKz-185" edge="1">
          <mxGeometry relative="1" as="geometry">
            <mxPoint x="753" y="397.5" as="sourcePoint" />
            <mxPoint x="674" y="417.5" as="targetPoint" />
            <Array as="points">
              <mxPoint x="753" y="417.5" />
            </Array>
          </mxGeometry>
        </mxCell>
        <mxCell id="9qdY8vDxd1mxcDxVxTKz-185" value="" style="verticalLabelPosition=bottom;shadow=0;dashed=0;align=center;html=1;verticalAlign=top;strokeWidth=3;shape=ellipse;fillColor=#0;" parent="1" vertex="1">
          <mxGeometry x="710.5" y="415" width="5" height="5" as="geometry" />
        </mxCell>
        <mxCell id="9qdY8vDxd1mxcDxVxTKz-186" value="" style="verticalLabelPosition=bottom;shadow=0;dashed=0;align=center;html=1;verticalAlign=top;strokeWidth=3;shape=ellipse;fillColor=#0;" parent="1" vertex="1">
          <mxGeometry x="540.5" y="550" width="5" height="5" as="geometry" />
        </mxCell>
        <mxCell id="9qdY8vDxd1mxcDxVxTKz-187" value="" style="verticalLabelPosition=bottom;shadow=0;dashed=0;align=center;html=1;verticalAlign=top;strokeWidth=3;shape=ellipse;fillColor=#0;" parent="1" vertex="1">
          <mxGeometry x="540.5" y="615" width="5" height="5" as="geometry" />
        </mxCell>
        <mxCell id="9qdY8vDxd1mxcDxVxTKz-188" value="" style="edgeStyle=orthogonalEdgeStyle;rounded=0;orthogonalLoop=1;jettySize=auto;html=1;exitX=1;exitY=0.5;exitDx=0;exitDy=0;exitPerimeter=0;entryX=0;entryY=0.5;entryDx=0;entryDy=0;entryPerimeter=0;endArrow=none;endFill=0;strokeWidth=3;" parent="1" source="9qdY8vDxd1mxcDxVxTKz-158" target="9qdY8vDxd1mxcDxVxTKz-189" edge="1">
          <mxGeometry relative="1" as="geometry">
            <mxPoint x="713" y="617.5" as="sourcePoint" />
            <mxPoint x="708" y="617.5" as="targetPoint" />
          </mxGeometry>
        </mxCell>
        <mxCell id="9qdY8vDxd1mxcDxVxTKz-189" value="" style="verticalLabelPosition=bottom;shadow=0;dashed=0;align=center;html=1;verticalAlign=top;strokeWidth=3;shape=ellipse;fillColor=#0;" parent="1" vertex="1">
          <mxGeometry x="710.5" y="615" width="5" height="5" as="geometry" />
        </mxCell>
        <mxCell id="9qdY8vDxd1mxcDxVxTKz-196" value="" style="pointerEvents=1;verticalLabelPosition=bottom;shadow=0;dashed=0;align=center;html=1;verticalAlign=top;shape=mxgraph.electrical.capacitors.capacitor_1;strokeWidth=3;" parent="1" vertex="1">
          <mxGeometry x="513" y="437.5" width="60" height="30" as="geometry" />
        </mxCell>
        <mxCell id="9qdY8vDxd1mxcDxVxTKz-197" style="edgeStyle=orthogonalEdgeStyle;rounded=0;orthogonalLoop=1;jettySize=auto;html=1;entryX=0.029;entryY=0.496;entryDx=0;entryDy=0;entryPerimeter=0;endArrow=none;endFill=0;strokeWidth=3;" parent="1" source="9qdY8vDxd1mxcDxVxTKz-196" target="9qdY8vDxd1mxcDxVxTKz-154" edge="1">
          <mxGeometry relative="1" as="geometry" />
        </mxCell>
        <mxCell id="9qdY8vDxd1mxcDxVxTKz-198" style="edgeStyle=orthogonalEdgeStyle;rounded=0;orthogonalLoop=1;jettySize=auto;html=1;endArrow=none;endFill=0;strokeWidth=3;entryX=0.917;entryY=0.483;entryDx=0;entryDy=0;entryPerimeter=0;" parent="1" edge="1">
          <mxGeometry relative="1" as="geometry">
            <mxPoint x="593" y="544.2" as="targetPoint" />
            <Array as="points">
              <mxPoint x="592.6600000000001" y="552.5" />
            </Array>
            <mxPoint x="545.1600000000001" y="552.5018621973929" as="sourcePoint" />
          </mxGeometry>
        </mxCell>
        <mxCell id="9qdY8vDxd1mxcDxVxTKz-199" value="" style="pointerEvents=1;verticalLabelPosition=bottom;shadow=0;dashed=0;align=center;html=1;verticalAlign=top;shape=mxgraph.electrical.signal_sources.signal_ground;strokeWidth=3;" parent="1" vertex="1">
          <mxGeometry x="698" y="717.5" width="30" height="30" as="geometry" />
        </mxCell>
        <mxCell id="9qdY8vDxd1mxcDxVxTKz-200" value="" style="pointerEvents=1;verticalLabelPosition=bottom;shadow=0;dashed=0;align=center;html=1;verticalAlign=top;shape=mxgraph.electrical.signal_sources.signal_ground;strokeWidth=3;" parent="1" vertex="1">
          <mxGeometry x="528" y="717.5" width="30" height="30" as="geometry" />
        </mxCell>
        <mxCell id="9qdY8vDxd1mxcDxVxTKz-202" value="" style="group" parent="1" vertex="1" connectable="0">
          <mxGeometry x="649" y="317.5" width="50" height="100" as="geometry" />
        </mxCell>
        <mxCell id="9qdY8vDxd1mxcDxVxTKz-203" value="" style="pointerEvents=1;verticalLabelPosition=bottom;shadow=0;dashed=0;align=center;html=1;verticalAlign=middle;shape=mxgraph.electrical.resistors.resistor_2;direction=south;strokeWidth=3;" parent="9qdY8vDxd1mxcDxVxTKz-202" vertex="1">
          <mxGeometry x="15" width="20" height="100" as="geometry" />
        </mxCell>
        <mxCell id="9qdY8vDxd1mxcDxVxTKz-204" value="" style="endArrow=block;html=1;rounded=0;verticalAlign=middle;strokeWidth=3;endFill=1;" parent="9qdY8vDxd1mxcDxVxTKz-202" edge="1">
          <mxGeometry width="50" height="50" relative="1" as="geometry">
            <mxPoint y="75" as="sourcePoint" />
            <mxPoint x="50" y="25" as="targetPoint" />
          </mxGeometry>
        </mxCell>
        <mxCell id="9qdY8vDxd1mxcDxVxTKz-205" value="" style="group" parent="1" vertex="1" connectable="0">
          <mxGeometry x="654" y="192.5" width="100" height="50" as="geometry" />
        </mxCell>
        <mxCell id="9qdY8vDxd1mxcDxVxTKz-206" value="" style="pointerEvents=1;verticalLabelPosition=bottom;shadow=0;dashed=0;align=center;html=1;verticalAlign=middle;shape=mxgraph.electrical.resistors.resistor_2;direction=south;strokeWidth=3;rotation=-90;" parent="9qdY8vDxd1mxcDxVxTKz-205" vertex="1">
          <mxGeometry x="40" y="-25" width="20" height="100" as="geometry" />
        </mxCell>
        <mxCell id="9qdY8vDxd1mxcDxVxTKz-207" value="" style="endArrow=block;html=1;rounded=0;verticalAlign=middle;strokeWidth=3;endFill=1;" parent="9qdY8vDxd1mxcDxVxTKz-205" edge="1">
          <mxGeometry width="50" height="50" relative="1" as="geometry">
            <mxPoint x="25" y="50" as="sourcePoint" />
            <mxPoint x="75" as="targetPoint" />
          </mxGeometry>
        </mxCell>
        <mxCell id="9qdY8vDxd1mxcDxVxTKz-208" value="" style="group" parent="1" vertex="1" connectable="0">
          <mxGeometry x="518" y="617.5" width="50" height="100" as="geometry" />
        </mxCell>
        <mxCell id="9qdY8vDxd1mxcDxVxTKz-209" value="" style="pointerEvents=1;verticalLabelPosition=bottom;shadow=0;dashed=0;align=center;html=1;verticalAlign=middle;shape=mxgraph.electrical.resistors.resistor_2;direction=south;strokeWidth=3;" parent="9qdY8vDxd1mxcDxVxTKz-208" vertex="1">
          <mxGeometry x="15" width="20" height="100" as="geometry" />
        </mxCell>
        <mxCell id="9qdY8vDxd1mxcDxVxTKz-210" value="" style="endArrow=block;html=1;rounded=0;verticalAlign=middle;strokeWidth=3;endFill=1;" parent="9qdY8vDxd1mxcDxVxTKz-208" edge="1">
          <mxGeometry width="50" height="50" relative="1" as="geometry">
            <mxPoint y="75" as="sourcePoint" />
            <mxPoint x="50" y="25" as="targetPoint" />
          </mxGeometry>
        </mxCell>
        <mxCell id="9qdY8vDxd1mxcDxVxTKz-211" value="" style="pointerEvents=1;verticalLabelPosition=bottom;shadow=0;dashed=0;align=center;html=1;verticalAlign=top;shape=mxgraph.electrical.signal_sources.signal_ground;strokeWidth=3;" parent="1" vertex="1">
          <mxGeometry x="378" y="716.12" width="30" height="30" as="geometry" />
        </mxCell>
        <mxCell id="9qdY8vDxd1mxcDxVxTKz-212" value="" style="pointerEvents=1;verticalLabelPosition=bottom;shadow=0;dashed=0;align=center;html=1;verticalAlign=top;shape=mxgraph.electrical.signal_sources.signal_ground;strokeWidth=3;" parent="1" vertex="1">
          <mxGeometry x="277.5" y="716.12" width="30" height="30" as="geometry" />
        </mxCell>
        <mxCell id="V1ESt-K5fZnzBhOt_6xl-1" style="edgeStyle=orthogonalEdgeStyle;rounded=0;orthogonalLoop=1;jettySize=auto;html=1;exitX=0.5;exitY=0;exitDx=0;exitDy=0;entryX=1;entryY=0.5;entryDx=0;entryDy=0;entryPerimeter=0;endArrow=none;endFill=0;strokeWidth=3;" edge="1" parent="1" source="9qdY8vDxd1mxcDxVxTKz-183" target="9qdY8vDxd1mxcDxVxTKz-206">
          <mxGeometry relative="1" as="geometry">
            <Array as="points">
              <mxPoint x="753" y="218" />
            </Array>
          </mxGeometry>
        </mxCell>
      </root>
    </mxGraphModel>
  </diagram>
</mxfile>
